<?xml version="1.0" encoding="UTF-8" standalone="no"?>
<!DOCTYPE svg PUBLIC "-//W3C//DTD SVG 1.1//EN" "http://www.w3.org/Graphics/SVG/1.1/DTD/svg11.dtd">
<svg width="100%" height="100%" viewBox="0 0 942 1000" version="1.1" xmlns="http://www.w3.org/2000/svg" xmlns:xlink="http://www.w3.org/1999/xlink" xml:space="preserve" xmlns:serif="http://www.serif.com/" style="fill-rule:evenodd;clip-rule:evenodd;stroke-linejoin:round;stroke-miterlimit:2;">
    <g transform="matrix(1,0,0,1,-383.556,-420.583)">
        <path d="M544.989,1122.5C579.959,1152.47 625.389,1170.58 675.017,1170.58C785.4,1170.58 875.017,1080.97 875.017,970.583L1125.02,970.583C1125.02,1218.94 923.379,1420.58 675.017,1420.58C563.875,1420.58 462.09,1380.2 383.556,1313.34L544.989,1122.5Z" style="fill:rgb(145,145,170);"/>
        <path d="M1324.98,420.583L1324.98,670.583C1214.6,670.583 1124.98,760.2 1124.98,870.583L874.983,870.583C874.983,622.221 1076.62,420.583 1324.98,420.583Z" style="fill:rgb(145,145,170);"/>
        <path d="M1008.84,420.583C921.088,482.377 852.184,569.178 812.535,670.583L540.994,670.583L540.994,420.583L1008.84,420.583Z" style="fill:rgb(145,145,170)"/>
    </g>
</svg>
